<svg width="14" height="8" viewBox="0 0 14 8" fill="none" xmlns="http://www.w3.org/2000/svg">
<path d="M13.6947 0.292786C13.5072 0.105315 13.2529 0 12.9877 0C12.7225 0 12.4682 0.105315 12.2807 0.292786L7.69471 4.87879C7.50458 5.06128 7.25125 5.16318 6.98771 5.16318C6.72417 5.16318 6.47084 5.06128 6.28071 4.87879L1.69471 0.292786C1.50611 0.110628 1.25351 0.00983372 0.991311 0.0121121C0.729114 0.0143906 0.478302 0.119559 0.292894 0.304967C0.107485 0.490376 0.00231622 0.741188 3.78025e-05 1.00339C-0.00224062 1.26558 0.0985542 1.51818 0.280712 1.70679L4.86571 6.29279C5.14429 6.57142 5.47503 6.79244 5.83904 6.94324C6.20305 7.09403 6.5932 7.17165 6.98721 7.17165C7.38122 7.17165 7.77137 7.09403 8.13538 6.94324C8.49939 6.79244 8.83013 6.57142 9.10871 6.29279L13.6947 1.70679C13.8822 1.51926 13.9875 1.26495 13.9875 0.999786C13.9875 0.734622 13.8822 0.480314 13.6947 0.292786Z" fill="#6F7485"/>
</svg>
