<svg width="181" height="31" viewBox="0 0 181 31" fill="none" xmlns="http://www.w3.org/2000/svg">
<path d="M56.2392 14.2448C56.2392 15.2532 56.0847 16.2859 55.7757 17.3431C55.4829 18.4003 55.0275 19.4168 54.4095 20.3926C53.7915 21.3684 53.0027 22.2467 52.0431 23.0274C51.0835 23.808 49.9369 24.4261 48.6033 24.8815C47.2859 25.3206 45.7652 25.5402 44.0412 25.5402C43.6509 25.5402 43.1467 25.532 42.5287 25.5158C41.9269 25.4832 41.1787 25.467 40.2842 25.467C39.9101 25.467 39.471 25.4751 38.9668 25.4914C38.4627 25.4914 37.9747 25.4995 37.5031 25.5158C37.0477 25.5158 36.6736 25.5239 36.3809 25.5402L36.454 25.0522C36.9745 25.0197 37.3811 24.9546 37.6738 24.8571C37.9829 24.7595 38.2268 24.5643 38.4057 24.2716C38.5846 23.9788 38.7473 23.5397 38.8936 22.9542L42.0895 10.8538C42.2522 10.2032 42.2684 9.70715 42.1383 9.36561C42.0082 9.0078 41.5203 8.8045 40.6746 8.75571L40.7477 8.26779C41.0568 8.28405 41.4552 8.30031 41.9431 8.31658C42.4473 8.33284 42.9759 8.34097 43.5289 8.34097C44.0819 8.34097 44.6023 8.34097 45.0902 8.34097C45.3342 8.32471 45.6839 8.31658 46.1393 8.31658C46.5947 8.30031 47.0582 8.29218 47.5298 8.29218C48.0015 8.27592 48.3918 8.26779 48.7008 8.26779C51.0754 8.26779 52.9213 8.77197 54.2387 9.78034C55.5724 10.7724 56.2392 12.2606 56.2392 14.2448ZM44.1388 25.101C45.3586 25.101 46.4401 24.7514 47.3835 24.052C48.3268 23.3364 49.1156 22.4012 49.7499 21.2465C50.4004 20.0917 50.8965 18.8313 51.238 17.4651C51.5796 16.0826 51.7503 14.7327 51.7503 13.4153C51.7503 11.8865 51.4739 10.7236 50.9209 9.92671C50.3679 9.11351 49.4652 8.70691 48.2129 8.70691C47.8388 8.70691 47.5542 8.75571 47.3591 8.85329C47.1639 8.95087 47.0094 9.15417 46.8955 9.46319C46.7817 9.75594 46.6516 10.2032 46.5052 10.805L43.3093 23.003C43.0979 23.8162 43.0084 24.3691 43.041 24.6619C43.0898 24.9546 43.4557 25.101 44.1388 25.101Z" fill="white"/>
<path d="M61.1943 24.3935C61.3894 24.3935 61.609 24.296 61.8529 24.1008C62.0969 23.8894 62.349 23.5722 62.6092 23.1493C62.8694 22.7265 63.1378 22.1816 63.4143 21.5148C63.6908 20.848 63.9591 20.0429 64.2194 19.0996L63.6095 21.7344C63.1053 23.2957 62.4872 24.3773 61.7554 24.979C61.0398 25.5808 60.2347 25.8817 59.3402 25.8817C58.3643 25.8817 57.6406 25.6133 57.1689 25.0766C56.6973 24.5399 56.4614 23.7999 56.4614 22.8566C56.4614 21.9458 56.6159 21.0106 56.925 20.0511C57.234 19.0752 57.6487 18.1482 58.1692 17.2699C58.7059 16.3754 59.2995 15.5785 59.9501 14.8791C60.6169 14.1635 61.3081 13.6024 62.0237 13.1958C62.7556 12.7729 63.4712 12.5615 64.1706 12.5615C64.7073 12.5615 65.1139 12.7485 65.3904 13.1226C65.6831 13.4967 65.7807 14.1147 65.6831 14.9767L65.4148 15.1231C65.4961 14.6189 65.4798 14.2448 65.366 14.0008C65.2684 13.7406 65.0895 13.6105 64.8293 13.6105C64.4389 13.6105 63.9998 13.887 63.5119 14.44C63.024 14.9929 62.5604 15.733 62.1213 16.66C61.6822 17.5708 61.3081 18.5792 60.9991 19.6851C60.7063 20.7911 60.56 21.8889 60.56 22.9786C60.56 23.4828 60.6088 23.8487 60.7063 24.0764C60.8039 24.2878 60.9666 24.3935 61.1943 24.3935ZM66.0247 12.9274C66.8216 12.9112 67.5291 12.8786 68.1471 12.8298C68.7814 12.7648 69.3994 12.6753 70.0012 12.5615L66.7565 23.4665C66.6915 23.6942 66.6508 23.8975 66.6346 24.0764C66.6346 24.239 66.6671 24.3691 66.7321 24.4667C66.8135 24.548 66.9273 24.5887 67.0737 24.5887C67.2526 24.5887 67.464 24.483 67.708 24.2716C67.9519 24.0601 68.2122 23.5885 68.4887 22.8566L68.9522 21.588H69.4157L68.8058 23.3689C68.448 24.3773 67.9519 25.0522 67.3177 25.3938C66.6834 25.7191 66.0572 25.8817 65.4392 25.8817C64.5284 25.8817 63.8778 25.6133 63.4875 25.0766C63.2435 24.7188 63.1215 24.2716 63.1215 23.7348C63.1215 23.1981 63.2273 22.5638 63.4387 21.832L66.0247 12.9274ZM64.3901 10.683C64.9756 9.821 65.431 9.07285 65.7563 8.43856C66.0979 7.788 66.3987 7.22689 66.659 6.75523C66.9354 6.26732 67.2607 5.84445 67.6348 5.48664C67.9438 5.16136 68.3342 4.94993 68.8058 4.85235C69.2937 4.7385 69.7166 4.86861 70.0744 5.24268C70.4159 5.5517 70.5298 5.90951 70.4159 6.31611C70.3184 6.72271 70.0744 7.12118 69.6841 7.51151C69.3588 7.85305 68.9603 8.1702 68.4887 8.46295C68.017 8.75571 67.4559 9.09725 66.8053 9.48759C66.171 9.86166 65.4473 10.3414 64.6341 10.9269L64.3901 10.683Z" fill="white"/>
<path d="M74.5709 25.5402H70.6919L73.6682 14.9767C73.7496 14.7327 73.7983 14.5294 73.8146 14.3668C73.8309 14.2041 73.8065 14.0822 73.7414 14.0008C73.6926 13.9033 73.5869 13.8545 73.4243 13.8545C73.1478 13.8545 72.8957 13.9764 72.668 14.2204C72.4566 14.4644 72.2207 14.9198 71.9605 15.5866L71.4482 16.9528H70.9847L71.6678 15.0743C71.9768 14.1797 72.3996 13.5373 72.9364 13.147C73.4731 12.7566 74.1318 12.5615 74.9124 12.5615C75.7419 12.5615 76.3274 12.7404 76.6689 13.0982C77.0105 13.4397 77.1975 13.8789 77.23 14.4156C77.2626 14.936 77.2057 15.4565 77.0593 15.9769L74.5709 25.5402ZM75.254 21.7344C75.9045 19.8478 76.5063 18.3108 77.0593 17.1235C77.6123 15.9363 78.149 15.0092 78.6694 14.3424C79.2061 13.6593 79.751 13.1958 80.3039 12.9518C80.8732 12.6916 81.475 12.5615 82.1092 12.5615C82.9062 12.5615 83.4836 12.7323 83.8414 13.0738C84.1992 13.3991 84.3862 13.8463 84.4025 14.4156C84.4187 14.9686 84.313 15.5785 84.0853 16.2453L81.6701 23.4665C81.5237 23.9219 81.4994 24.2228 81.5969 24.3691C81.6945 24.5155 81.8246 24.5887 81.9873 24.5887C82.1662 24.5887 82.3776 24.4911 82.6216 24.296C82.8655 24.0845 83.1258 23.6047 83.4022 22.8566L83.8658 21.588H84.3293L83.7194 23.3689C83.3616 24.3935 82.8655 25.0685 82.2312 25.3938C81.5969 25.7191 80.9708 25.8817 80.3527 25.8817C79.3769 25.8817 78.6857 25.5971 78.2791 25.0278C78.0514 24.7026 77.9294 24.2878 77.9131 23.7836C77.9131 23.2795 78.0433 22.6289 78.3035 21.832L80.4503 15.3914C80.5479 15.1149 80.613 14.871 80.6455 14.6595C80.678 14.4318 80.6699 14.2529 80.6211 14.1228C80.5723 13.9927 80.4666 13.9277 80.3039 13.9277C79.9461 13.9277 79.5233 14.2529 79.0354 14.9035C78.5474 15.5378 78.0351 16.3998 77.4984 17.4895C76.978 18.5629 76.4656 19.7664 75.9615 21.1001C75.4735 22.4175 75.0507 23.7674 74.6929 25.1498L75.254 21.7344Z" fill="white"/>
<path d="M90.0216 24.3935C90.2167 24.3935 90.4363 24.296 90.6803 24.1008C90.9242 23.8894 91.1763 23.5722 91.4365 23.1493C91.6967 22.7265 91.9651 22.1816 92.2416 21.5148C92.5181 20.848 92.7864 20.0429 93.0467 19.0996L92.4368 21.7344C91.9326 23.2957 91.3145 24.3773 90.5827 24.979C89.8671 25.5808 89.062 25.8817 88.1675 25.8817C87.1916 25.8817 86.4679 25.6133 85.9962 25.0766C85.5246 24.5399 85.2887 23.7999 85.2887 22.8566C85.2887 21.9458 85.4432 21.0106 85.7523 20.0511C86.0613 19.0752 86.476 18.1482 86.9965 17.2699C87.5332 16.3754 88.1268 15.5785 88.7774 14.8791C89.4442 14.1635 90.1354 13.6024 90.851 13.1958C91.5829 12.7729 92.2985 12.5615 92.9979 12.5615C93.5346 12.5615 93.9412 12.7485 94.2177 13.1226C94.5104 13.4967 94.608 14.1147 94.5104 14.9767L94.2421 15.1231C94.3234 14.6189 94.3071 14.2448 94.1933 14.0008C94.0957 13.7406 93.9168 13.6105 93.6566 13.6105C93.2662 13.6105 92.8271 13.887 92.3392 14.44C91.8513 14.9929 91.3877 15.733 90.9486 16.66C90.5095 17.5708 90.1354 18.5792 89.8264 19.6851C89.5336 20.7911 89.3873 21.8889 89.3873 22.9786C89.3873 23.4828 89.4361 23.8487 89.5336 24.0764C89.6312 24.2878 89.7939 24.3935 90.0216 24.3935ZM94.852 12.9274C95.6489 12.9112 96.3564 12.8786 96.9744 12.8298C97.6087 12.7648 98.2267 12.6753 98.8285 12.5615L95.5838 23.4665C95.5188 23.6942 95.4781 23.8975 95.4619 24.0764C95.4619 24.239 95.4944 24.3691 95.5595 24.4667C95.6408 24.548 95.7546 24.5887 95.901 24.5887C96.0799 24.5887 96.2913 24.483 96.5353 24.2716C96.7793 24.0601 97.0395 23.5885 97.316 22.8566L97.7795 21.588H98.243L97.6331 23.3689C97.2753 24.3773 96.7793 25.0522 96.145 25.3938C95.5107 25.7191 94.8845 25.8817 94.2665 25.8817C93.3557 25.8817 92.7051 25.6133 92.3148 25.0766C92.0708 24.7188 91.9488 24.2716 91.9488 23.7348C91.9488 23.1981 92.0546 22.5638 92.266 21.832L94.852 12.9274Z" fill="white"/>
<path d="M103.398 25.5402H99.5192L102.496 14.9767C102.609 14.5701 102.642 14.2855 102.593 14.1228C102.561 13.9439 102.447 13.8545 102.252 13.8545C101.975 13.8545 101.723 13.9846 101.495 14.2448C101.268 14.4888 101.032 14.936 100.788 15.5866L100.276 16.9528H99.812L100.495 15.0743C100.82 14.1472 101.284 13.4967 101.886 13.1226C102.504 12.7485 103.203 12.5615 103.984 12.5615C104.716 12.5615 105.236 12.7404 105.545 13.0982C105.854 13.4397 106.017 13.8789 106.033 14.4156C106.065 14.936 106.017 15.4565 105.887 15.9769L103.398 25.5402ZM109.644 13.0738C109.318 13.0738 108.977 13.147 108.619 13.2934C108.261 13.4397 107.887 13.7406 107.497 14.196C107.106 14.6514 106.692 15.3264 106.253 16.2209C105.83 17.0991 105.382 18.2783 104.911 19.7583C104.439 21.2221 103.951 23.0518 103.447 25.2474L103.984 21.8808C104.488 20.0429 104.943 18.5304 105.35 17.3431C105.773 16.1396 106.187 15.1881 106.594 14.4888C107.017 13.7731 107.472 13.2771 107.96 13.0006C108.448 12.7079 109.009 12.5615 109.644 12.5615C110.343 12.5615 110.88 12.7729 111.254 13.1958C111.628 13.6024 111.815 14.1147 111.815 14.7327C111.815 15.4809 111.571 16.1314 111.083 16.6844C110.611 17.2374 110.01 17.5139 109.278 17.5139C108.741 17.5139 108.326 17.3756 108.033 17.0991C107.757 16.8226 107.619 16.416 107.619 15.8793C107.619 15.2288 107.846 14.6433 108.302 14.1228C108.773 13.6024 109.326 13.2771 109.961 13.147C109.912 13.1307 109.863 13.1145 109.814 13.0982C109.766 13.0819 109.709 13.0738 109.644 13.0738Z" fill="white"/>
<path d="M112.361 13.3909L112.507 12.903H120.875L120.729 13.3909H112.361ZM121.607 6.92601C121.363 6.92601 121.135 6.96667 120.924 7.04799C120.728 7.11304 120.541 7.21876 120.363 7.36513C120.086 7.60909 119.842 7.9913 119.631 8.51175C119.436 9.01593 119.232 9.64209 119.021 10.3902L113.824 29.7851C113.044 29.8013 112.336 29.8338 111.702 29.8826C111.084 29.9314 110.474 30.0128 109.872 30.1266L114.41 13.1958C114.784 11.7808 115.207 10.6179 115.679 9.70715C116.166 8.79637 116.752 8.08075 117.435 7.5603C117.923 7.18623 118.46 6.90974 119.045 6.73084C119.647 6.55193 120.289 6.46248 120.972 6.46248C122.095 6.46248 122.965 6.69018 123.583 7.14557C124.201 7.60096 124.51 8.21899 124.51 8.99967C124.51 9.53638 124.282 10.0568 123.827 10.561C123.388 11.0489 122.802 11.2929 122.07 11.2929C121.534 11.2929 121.103 11.1628 120.777 10.9026C120.468 10.6423 120.314 10.2683 120.314 9.78034C120.314 9.2111 120.493 8.69065 120.85 8.21899C121.208 7.74734 121.704 7.39766 122.339 7.16997C122.241 7.08865 122.127 7.03172 121.997 6.99919C121.883 6.9504 121.753 6.92601 121.607 6.92601Z" fill="white"/>
<path d="M123.696 25.5402H119.817L122.794 14.9767C122.908 14.5701 122.94 14.2855 122.891 14.1228C122.859 13.9439 122.745 13.8545 122.55 13.8545C122.273 13.8545 122.021 13.9846 121.794 14.2448C121.566 14.4888 121.33 14.936 121.086 15.5866L120.574 16.9528H120.11L120.793 15.0743C121.119 14.1472 121.582 13.4967 122.184 13.1226C122.802 12.7485 123.501 12.5615 124.282 12.5615C125.014 12.5615 125.534 12.7404 125.843 13.0982C126.152 13.4397 126.315 13.8789 126.331 14.4156C126.364 14.936 126.315 15.4565 126.185 15.9769L123.696 25.5402ZM129.942 13.0738C129.617 13.0738 129.275 13.147 128.917 13.2934C128.559 13.4397 128.185 13.7406 127.795 14.196C127.405 14.6514 126.99 15.3264 126.551 16.2209C126.128 17.0991 125.681 18.2783 125.209 19.7583C124.737 21.2221 124.249 23.0518 123.745 25.2474L124.282 21.8808C124.786 20.0429 125.242 18.5304 125.648 17.3431C126.071 16.1396 126.486 15.1881 126.892 14.4888C127.315 13.7731 127.771 13.2771 128.258 13.0006C128.746 12.7079 129.308 12.5615 129.942 12.5615C130.641 12.5615 131.178 12.7729 131.552 13.1958C131.926 13.6024 132.113 14.1147 132.113 14.7327C132.113 15.4809 131.869 16.1314 131.381 16.6844C130.91 17.2374 130.308 17.5139 129.576 17.5139C129.039 17.5139 128.624 17.3756 128.332 17.0991C128.055 16.8226 127.917 16.416 127.917 15.8793C127.917 15.2288 128.145 14.6433 128.6 14.1228C129.072 13.6024 129.625 13.2771 130.259 13.147C130.21 13.1307 130.161 13.1145 130.113 13.0982C130.064 13.0819 130.007 13.0738 129.942 13.0738Z" fill="white"/>
<path d="M134.691 20.3438C135.292 20.0836 135.87 19.7908 136.423 19.4655C136.976 19.124 137.464 18.7581 137.887 18.3677C138.521 17.766 139.041 17.0747 139.448 16.2941C139.854 15.4971 140.058 14.6433 140.058 13.7325C140.058 13.456 140.025 13.269 139.96 13.1714C139.895 13.0738 139.798 13.025 139.667 13.025C139.228 13.025 138.757 13.3015 138.252 13.8545C137.748 14.4074 137.26 15.1312 136.789 16.0257C136.333 16.904 135.959 17.8635 135.666 18.9044C135.374 19.9453 135.227 20.9456 135.227 21.9051C135.227 22.8322 135.406 23.4584 135.764 23.7836C136.138 24.1089 136.618 24.2716 137.203 24.2716C137.577 24.2716 138.09 24.1415 138.74 23.8812C139.391 23.6047 140.033 23.1168 140.668 22.4175L141.058 22.6126C140.716 23.1493 140.261 23.6698 139.692 24.174C139.123 24.6782 138.456 25.0929 137.691 25.4182C136.927 25.7272 136.081 25.8817 135.154 25.8817C134.048 25.8817 133.097 25.5971 132.3 25.0278C131.519 24.4423 131.129 23.5803 131.129 22.4419C131.129 21.5311 131.275 20.6122 131.568 19.6851C131.861 18.7581 132.275 17.8717 132.812 17.026C133.349 16.164 133.991 15.3995 134.739 14.7327C135.504 14.0659 136.341 13.5373 137.252 13.147C138.163 12.7566 139.147 12.5615 140.204 12.5615C140.985 12.5615 141.643 12.7323 142.18 13.0738C142.717 13.3991 142.985 13.9114 142.985 14.6107C142.985 15.2288 142.814 15.8143 142.473 16.3673C142.131 16.904 141.668 17.4 141.082 17.8554C140.513 18.3108 139.863 18.7174 139.131 19.0752C138.415 19.433 137.675 19.742 136.911 20.0023C136.146 20.2625 135.398 20.4658 134.666 20.6122L134.691 20.3438ZM138.423 10.683C139.009 9.821 139.464 9.07285 139.789 8.43856C140.131 7.788 140.432 7.22689 140.692 6.75523C140.969 6.26732 141.294 5.84445 141.668 5.48664C141.977 5.16136 142.367 4.94993 142.839 4.85235C143.327 4.7385 143.75 4.86861 144.107 5.24268C144.449 5.5517 144.563 5.90951 144.449 6.31611C144.351 6.72271 144.107 7.12118 143.717 7.51151C143.392 7.85305 142.993 8.1702 142.522 8.46295C142.05 8.75571 141.489 9.09725 140.838 9.48759C140.204 9.86166 139.48 10.3414 138.667 10.9269L138.423 10.683Z" fill="white"/>
<path d="M152.949 12.903L152.875 13.3909H144.117L144.239 12.903H152.949ZM147.289 23.4665C147.175 23.8406 147.175 24.1252 147.289 24.3204C147.403 24.4993 147.581 24.5887 147.825 24.5887C148.151 24.5887 148.476 24.4179 148.801 24.0764C149.143 23.7186 149.427 23.2307 149.655 22.6126L150.045 21.588H150.509L150.045 22.9786C149.72 23.9219 149.232 24.6456 148.582 25.1498C147.947 25.6377 147.175 25.8817 146.264 25.8817C145.077 25.8817 144.304 25.4914 143.946 24.7107C143.605 23.9138 143.589 22.9542 143.898 21.832L147.508 9.29242C148.305 9.27615 149.021 9.24363 149.655 9.19483C150.289 9.14604 150.907 9.06472 151.509 8.95087L147.289 23.4665Z" fill="white"/>
<path d="M161.716 12.903L161.643 13.3909H152.885L153.006 12.903H161.716ZM156.056 23.4665C155.942 23.8406 155.942 24.1252 156.056 24.3204C156.17 24.4993 156.349 24.5887 156.593 24.5887C156.918 24.5887 157.243 24.4179 157.569 24.0764C157.91 23.7186 158.195 23.2307 158.422 22.6126L158.813 21.588H159.276L158.813 22.9786C158.487 23.9219 158 24.6456 157.349 25.1498C156.715 25.6377 155.942 25.8817 155.031 25.8817C153.844 25.8817 153.072 25.4914 152.714 24.7107C152.372 23.9138 152.356 22.9542 152.665 21.832L156.276 9.29242C157.073 9.27615 157.788 9.24363 158.422 9.19483C159.057 9.14604 159.675 9.06472 160.277 8.95087L156.056 23.4665Z" fill="white"/>
<path d="M164.677 8.95087C164.693 8.1702 164.962 7.57657 165.482 7.16997C166.019 6.76337 166.661 6.56007 167.409 6.56007C168.076 6.56007 168.572 6.70644 168.897 6.99919C169.239 7.27568 169.402 7.68228 169.385 8.21899C169.369 8.90208 169.093 9.46319 168.556 9.90232C168.035 10.3414 167.393 10.561 166.629 10.561C165.994 10.561 165.506 10.4228 165.165 10.1463C164.823 9.85353 164.661 9.45506 164.677 8.95087ZM163.701 14.9767C163.961 14.2285 163.88 13.8545 163.457 13.8545C163.197 13.8545 162.953 13.9846 162.725 14.2448C162.498 14.505 162.254 14.9523 161.993 15.5866L161.481 16.9528H161.018L161.701 15.0743C162.026 14.1472 162.498 13.4967 163.116 13.1226C163.734 12.7485 164.433 12.5615 165.214 12.5615C166.011 12.5615 166.588 12.7404 166.946 13.0982C167.304 13.456 167.499 13.8951 167.531 14.4156C167.58 14.936 167.515 15.4565 167.336 15.9769L164.775 23.4665C164.644 23.8894 164.612 24.1821 164.677 24.3447C164.758 24.5074 164.896 24.5887 165.092 24.5887C165.271 24.5887 165.482 24.483 165.726 24.2716C165.97 24.0601 166.23 23.5885 166.507 22.8566L166.97 21.588H167.434L166.824 23.3689C166.466 24.3773 165.97 25.0522 165.336 25.3938C164.701 25.7191 164.067 25.8817 163.433 25.8817C162.717 25.8817 162.156 25.7272 161.749 25.4182C161.343 25.1092 161.107 24.6538 161.042 24.052C160.977 23.4502 161.091 22.7102 161.383 21.832L163.701 14.9767Z" fill="white"/>
<path d="M172.584 25.5402H168.705L171.681 14.9767C171.795 14.5701 171.827 14.2855 171.779 14.1228C171.746 13.9439 171.632 13.8545 171.437 13.8545C171.161 13.8545 170.909 13.9846 170.681 14.2448C170.453 14.4888 170.217 14.936 169.973 15.5866L169.461 16.9528H168.997L169.681 15.0743C170.006 14.1472 170.469 13.4967 171.071 13.1226C171.689 12.7485 172.389 12.5615 173.169 12.5615C173.901 12.5615 174.422 12.7404 174.731 13.0982C175.04 13.4397 175.202 13.8789 175.218 14.4156C175.251 14.936 175.202 15.4565 175.072 15.9769L172.584 25.5402ZM178.829 13.0738C178.504 13.0738 178.162 13.147 177.804 13.2934C177.447 13.4397 177.073 13.7406 176.682 14.196C176.292 14.6514 175.877 15.3264 175.438 16.2209C175.015 17.0991 174.568 18.2783 174.096 19.7583C173.625 21.2221 173.137 23.0518 172.633 25.2474L173.169 21.8808C173.673 20.0429 174.129 18.5304 174.535 17.3431C174.958 16.1396 175.373 15.1881 175.78 14.4888C176.202 13.7731 176.658 13.2771 177.146 13.0006C177.634 12.7079 178.195 12.5615 178.829 12.5615C179.528 12.5615 180.065 12.7729 180.439 13.1958C180.813 13.6024 181 14.1147 181 14.7327C181 15.4809 180.756 16.1314 180.268 16.6844C179.797 17.2374 179.195 17.5139 178.463 17.5139C177.926 17.5139 177.512 17.3756 177.219 17.0991C176.942 16.8226 176.804 16.416 176.804 15.8793C176.804 15.2288 177.032 14.6433 177.487 14.1228C177.959 13.6024 178.512 13.2771 179.146 13.147C179.097 13.1307 179.049 13.1145 179 13.0982C178.951 13.0819 178.894 13.0738 178.829 13.0738Z" fill="white"/>
<g clip-path="url(#clip0_1601_1181)">
<path d="M1.80934 18.791C1.97976 18.7328 2.15673 18.6959 2.33622 18.6811C2.51269 18.6672 2.69025 18.6795 2.8631 18.7177C3.02395 18.7584 3.17405 18.8336 3.30299 18.938C3.43193 19.0425 3.53665 19.1737 3.6099 19.3226C3.69723 19.5033 3.76186 19.6942 3.80233 19.8908C3.80233 19.9733 3.86647 20.1474 3.9077 20.2619C3.94893 20.3765 3.99017 20.5094 4.04057 20.6239C4.22992 21.0924 4.47119 21.5381 4.75987 21.9528C5.04654 22.363 5.3802 22.7382 5.75408 23.0709C6.13068 23.3925 6.54445 23.6679 6.98652 23.8911C7.85736 24.3199 8.81093 24.5544 9.78129 24.5784C8.85716 24.4101 7.97475 24.063 7.18353 23.5566C6.42332 23.0526 5.7949 22.3738 5.3509 21.577C5.13228 21.1871 4.95859 20.7736 4.83318 20.3444C4.80264 20.2375 4.77514 20.1321 4.75071 20.0282C4.72322 19.9137 4.71864 19.8587 4.69573 19.7075C4.65887 19.4355 4.58807 19.1692 4.48498 18.9148C4.36631 18.6277 4.18818 18.369 3.96233 18.1558C3.73648 17.9425 3.46803 17.7795 3.17465 17.6775C3.04717 17.6378 2.91703 17.6072 2.78521 17.5859C2.94753 17.3929 3.12694 17.215 3.32126 17.0544C3.73832 16.6954 4.27394 16.5043 4.82402 16.5182C5.401 16.5615 5.95753 16.7507 6.44131 17.0681C6.97255 17.3908 7.45408 17.7891 7.87077 18.2503L9.08031 19.5929L9.29564 17.7875C9.49831 16.0597 9.96174 14.3726 10.6701 12.7837C11.3984 11.2278 12.4205 9.82748 13.6802 8.65964C14.9514 7.47983 16.4099 6.51973 17.9961 5.81864C18.7969 5.46375 19.6185 5.1577 20.4564 4.90218C20.9878 4.7418 21.5422 4.60433 22.0874 4.49436C22.0874 4.95258 22.0874 5.41081 22.0874 5.86904C22.0233 6.64344 21.9454 7.41326 21.8538 8.18766L21.6293 9.31948L21.5147 9.89227C21.4826 10.0801 21.4048 10.2589 21.3589 10.4467L21.0245 11.5556C20.8962 11.9176 20.7313 12.2659 20.5663 12.6233C19.9474 14.0422 19.0572 15.3264 17.9457 16.4037C16.8116 17.5059 15.4214 18.3089 13.9001 18.7406C15.523 18.5298 17.0586 17.8838 18.3443 16.8711C19.653 15.847 20.7317 14.559 21.5101 13.0907C22.2894 11.6268 22.8556 10.0591 23.1916 8.43511C23.329 7.62405 23.4619 6.80841 23.5764 5.99277C23.691 5.17712 23.6726 4.35689 23.723 3.53666L23.7734 2.6477L22.8571 2.73477C21.8926 2.83003 20.9378 3.00631 20.0028 3.26172C19.0778 3.49636 18.1725 3.80277 17.2951 4.17818C15.5139 4.94083 13.8725 5.9955 12.4386 7.2987C11.7316 7.97045 11.0889 8.70682 10.5189 9.4982C9.95942 10.2957 9.47331 11.1423 9.06656 12.0276C8.4919 13.3294 8.08841 14.7002 7.86618 16.1058C7.66125 15.9587 7.44868 15.8226 7.22935 15.698C6.50003 15.2748 5.6718 15.0519 4.8286 15.0519C3.94896 15.0828 3.1098 15.4292 2.4645 16.0279C1.89047 16.5676 1.42406 17.2114 1.09003 17.925L0.508168 19.1393C-0.216156 16.4016 -0.163757 13.5163 0.659494 10.8068C1.48274 8.09724 3.04431 5.6706 5.16912 3.79888C7.29393 1.92715 9.898 0.68433 12.6894 0.20975C15.4808 -0.264831 18.3492 0.0475843 20.9731 1.11197C23.5969 2.17635 25.8725 3.95063 27.5447 6.23591C29.2168 8.52118 30.2196 11.2271 30.4404 14.0504C30.6612 16.8736 30.0914 19.7026 28.7949 22.2201C27.4984 24.7377 25.5264 26.8443 23.0999 28.3038C21.3847 27.1533 19.7371 25.9049 18.1656 24.5647C19.1358 26.224 20.3567 27.7233 21.785 29.0095C21.4185 29.1836 21.0428 29.344 20.658 29.4906C20.1723 29.0737 19.6867 28.6475 19.2148 28.2122C17.6404 26.7748 16.1533 25.2447 14.7615 23.6299C15.5785 25.6684 16.7323 27.5551 18.1747 29.2111C18.413 29.4952 18.6696 29.7701 18.9215 30.0405C18.5 30.1459 18.0694 30.2375 17.6341 30.3017C16.7178 29.1592 15.8534 27.9708 15.0409 26.7367C13.7687 24.7998 12.6151 22.7876 11.5864 20.711C11.9577 23.0629 12.7032 25.3401 13.7948 27.4561C14.3223 28.5025 14.916 29.5142 15.5724 30.485H15.2471C11.9016 30.4851 8.64899 29.3847 5.9905 27.3535C3.33201 25.3223 1.41525 22.4729 0.535657 19.2447L1.80934 18.791Z" fill="#CEA249"/>
</g>
<defs>
<clipPath id="clip0_1601_1181">
<rect width="30.495" height="30.495" fill="white"/>
</clipPath>
</defs>
</svg>
