<svg width="24" height="24" viewBox="0 0 24 24" fill="white" xmlns="http://www.w3.org/2000/svg">
<path d="M10.2928 5.30529C10.1053 5.49282 10 5.74712 10 6.01229C10 6.27745 10.1053 6.53176 10.2928 6.71929L14.8788 11.3053C15.0613 11.4954 15.1632 11.7488 15.1632 12.0123C15.1632 12.2758 15.0613 12.5292 14.8788 12.7193L10.2928 17.3053C10.1106 17.4939 10.0098 17.7465 10.0121 18.0087C10.0144 18.2709 10.1196 18.5217 10.305 18.7071C10.4904 18.8925 10.7412 18.9977 11.0034 19C11.2656 19.0022 11.5182 18.9014 11.7068 18.7193L16.2928 14.1343C16.5714 13.8557 16.7924 13.525 16.9432 13.161C17.094 12.7969 17.1716 12.4068 17.1716 12.0128C17.1716 11.6188 17.094 11.2286 16.9432 10.8646C16.7924 10.5006 16.5714 10.1699 16.2928 9.89129L11.7068 5.30529C11.5193 5.11782 11.265 5.0125 10.9998 5.0125C10.7346 5.0125 10.4803 5.11782 10.2928 5.30529Z" fill="white"/>
</svg>
